<?xml version="1.0" encoding="UTF-8"?>
<svg id="Layer_1" data-name="Layer 1" xmlns="http://www.w3.org/2000/svg" viewBox="0 0 720 476.47">
  <defs>
    <style>
      .cls-1 {
        fill: #f99f20;
      }
    </style>
  </defs>
  <circle class="cls-1" cx="360" cy="40.28" r="40.28"/>
  <path class="cls-1" d="M640.97,336.96c-18.8-138.39-137.43-245.04-280.97-245.04S97.83,198.57,79.03,336.96c-2.77,20.4,13.25,38.52,33.83,38.52h494.27c20.58,0,36.6-18.12,33.83-38.52ZM540.09,320.53H179.91c-15,0-26.67-10.72-24.65-22.79,13.7-81.88,100.15-144.99,204.75-144.99s191.05,63.11,204.75,144.99c2.02,12.07-9.65,22.79-24.65,22.79Z"/>
  <path class="cls-1" d="M692.53,395.31H27.47c-15.17,0-27.47,12.3-27.47,27.47h0c0,15.17,12.3,27.47,27.47,27.47h24.37c.66,14.59,12.69,26.22,27.44,26.22h561.94c14.75,0,26.79-11.63,27.44-26.22h23.86c15.17,0,27.47-12.3,27.47-27.47h0c0-15.17-12.3-27.47-27.47-27.47Z"/>
</svg>