<?xml version="1.0" encoding="UTF-8"?>
<svg id="Layer_1" data-name="Layer 1" xmlns="http://www.w3.org/2000/svg" viewBox="0 0 512 512">
  <defs>
    <style>
      .cls-1 {
        fill: #f99f20;
      }
    </style>
  </defs>
  <path class="cls-1" d="M125.5,24c8.01,0,14.5,6.49,14.5,14.5v14.5h232v-14.5c0-8.01,6.49-14.5,14.5-14.5s14.5,6.49,14.5,14.5v14.5h29c32.03,0,58,25.97,58,58v319c0,32.03-25.97,58-58,58H82c-32.03,0-58-25.97-58-58V111c0-32.03,25.97-58,58-58h29v-14.5c0-8.01,6.49-14.5,14.5-14.5M53,140v290c0,16.02,12.98,29,29,29h348c16.02,0,29-12.98,29-29V140H53Z"/>
  <g>
    <g>
      <path class="cls-1" d="M310.41,185.44c-10.11,0-18.3,8.19-18.3,18.3v81.28h-81.28c-10.11,0-18.3,8.19-18.3,18.3h0c0,10.11,8.19,18.3,18.3,18.3h99.58c10.11,0,18.3-8.19,18.3-18.3h0v-99.58c0-10.11-8.19-18.3-18.3-18.3Z"/>
      <path class="cls-1" d="M276.13,268.77h0c7.15-7.15,7.15-18.73,0-25.88l-61.6-61.6c-7.15-7.15-18.73-7.15-25.88,0h0c-7.15,7.15-7.15,18.73,0,25.88l61.6,61.6c7.15,7.15,18.73,7.15,25.88,0Z"/>
    </g>
    <g>
      <path class="cls-1" d="M195.22,342.17c0,5.91,4.79,10.71,10.71,10.71h47.57v47.57c0,5.91,4.79,10.71,10.71,10.71h0c5.91,0,10.71-4.79,10.71-10.71v-58.28c0-5.91-4.79-10.71-10.71-10.71h-58.28c-5.91,0-10.71,4.79-10.71,10.71Z"/>
      <path class="cls-1" d="M243.99,362.23h0c-4.18-4.18-10.96-4.18-15.14,0l-36.05,36.05c-4.18,4.18-4.18,10.96,0,15.14h0c4.18,4.18,10.96,4.18,15.14,0l36.05-36.05c4.18-4.18,4.18-10.96,0-15.14Z"/>
    </g>
  </g>
</svg>