<?xml version="1.0" encoding="UTF-8"?>
<svg id="Layer_2" data-name="Layer 2" xmlns="http://www.w3.org/2000/svg" viewBox="0 0 720 720">
  <defs>
    <style>
      .cls-1 {
        fill: #ff6400;
      }
    </style>
  </defs>
  <path class="cls-1" d="M635.47,0H84.62C37.93,0,.09,36.23.09,80.92v340.01c-.38,7.95.02,24.51,10.27,40.52,3.25,5.08,6.85,9.1,10.18,12.21l301.68,246.35v-218.16h313.26c46.68,0,84.53-36.23,84.53-80.92V80.92c0-44.69-37.84-80.92-84.53-80.92ZM649.63,347.71c-1.94,3.03-4.08,5.42-6.07,7.28l-179.83,146.85v-130.05h-186.73c-27.83,0-50.39-21.6-50.39-48.23V120.88c0-26.64,22.56-48.23,50.39-48.23h328.36c27.83,0,50.39,21.6,50.39,48.23v202.68c.23,4.74-.01,14.61-6.12,24.15Z"/>
</svg>