<?xml version="1.0" encoding="UTF-8"?>
<svg id="Layer_1" data-name="Layer 1" xmlns="http://www.w3.org/2000/svg" viewBox="0 0 546.92 720">
  <defs>
    <style>
      .cls-1 {
        fill: #f99f20;
      }
    </style>
  </defs>
  <path class="cls-1" d="M339.16,610.88s0,0,0,0h-131.22c-7.93,0-14.35-6.43-14.35-14.36,0-7.93,6.43-14.35,14.35-14.35,0,0,0,0,0,0h131.22c7.93,0,14.35,6.43,14.35,14.36,0,7.93-6.43,14.35-14.35,14.35Z"/>
  <path class="cls-1" d="M339.16,647.25s0,0,0,0h-131.22c-7.93,0-14.35-6.43-14.35-14.36,0-7.93,6.43-14.35,14.35-14.35,0,0,0,0,0,0h131.22c7.93,0,14.35,6.43,14.35,14.36,0,7.93-6.43,14.35-14.35,14.35Z"/>
  <path class="cls-1" d="M339.16,683.63s0,0,0,0h-131.22c-7.93,0-14.35-6.43-14.35-14.36,0-7.93,6.43-14.35,14.35-14.35,0,0,0,0,0,0h131.22c7.93,0,14.35,6.43,14.35,14.36,0,7.93-6.43,14.35-14.35,14.35Z"/>
  <g>
    <g>
      <path class="cls-1" d="M329.04,199.55c-10.02,0-18.15,8.13-18.15,18.15v80.63h-80.63c-10.02,0-18.15,8.13-18.15,18.15h0c0,10.02,8.13,18.15,18.15,18.15h98.78c10.02,0,18.15-8.13,18.15-18.15h0v-98.78c0-10.02-8.13-18.15-18.15-18.15Z"/>
      <path class="cls-1" d="M295.03,282.21h0c7.09-7.09,7.09-18.58,0-25.67l-61.11-61.11c-7.09-7.09-18.58-7.09-25.67,0h0c-7.09,7.09-7.09,18.58,0,25.67l61.11,61.11c7.09,7.09,18.58,7.09,25.67,0Z"/>
    </g>
    <g>
      <path class="cls-1" d="M214.77,355.01c0,5.87,4.76,10.62,10.62,10.62h47.19v47.19c0,5.87,4.76,10.62,10.62,10.62h0c5.87,0,10.62-4.76,10.62-10.62v-57.81c0-5.87-4.76-10.62-10.62-10.62h-57.81c-5.87,0-10.62,4.76-10.62,10.62Z"/>
      <path class="cls-1" d="M263.15,374.92h0c-4.15-4.15-10.87-4.15-15.02,0l-35.76,35.76c-4.15,4.15-4.15,10.87,0,15.02h0c4.15,4.15,10.87,4.15,15.02,0l35.76-35.76c4.15-4.15,4.15-10.87,0-15.02Z"/>
    </g>
  </g>
  <path class="cls-1" d="M234.56,691.29c-2.93,0-4.57,3.37-2.76,5.68,11.21,14.35,25.8,23.03,41.76,23.03s30.55-8.68,41.76-23.03c1.8-2.31.17-5.68-2.76-5.68h-77.99Z"/>
  <g>
    <path class="cls-1" d="M423.97,329.88c1.54-4,3.06-8,4.55-12l-4.55,12Z"/>
    <path class="cls-1" d="M520.82,134.74L299.56,6.99c-16.15-9.33-36.05-9.33-52.2,0L26.1,134.74C9.95,144.06,0,161.3,0,179.95v255.49c0,18.65,9.95,35.88,26.1,45.21l165.07,95.3c1.09.63,2.45-.17,2.44-1.43-.99-87.14-40.43-165.91-71-245.44-1.43-3.73-2.85-7.45-4.24-11.18,0,0,0,0,0-.01-5.54-16.42-8.54-34.01-8.54-52.3,0-87.81,69.16-159.46,155.97-163.46,96.65-4.45,176.39,76.05,171.04,172.65-1.08,19.48-5.56,38.04-12.87,55.12-30.39,78.91-69.37,157.11-70.68,243.5v1.18c0,1.25,1.35,2.03,2.44,1.41l165.09-95.31c16.15-9.33,26.1-26.56,26.1-45.21v-255.49c0-18.65-9.95-35.88-26.1-45.21Z"/>
  </g>
</svg>