<?xml version="1.0" encoding="UTF-8"?>
<svg id="Layer_1" data-name="Layer 1" xmlns="http://www.w3.org/2000/svg" viewBox="0 0 720 517.78">
  <defs>
    <style>
      .cls-1 {
        fill: #f99f20;
      }
    </style>
  </defs>
  <path class="cls-1" d="M348.89,517.78c-11.32-4.27-19.57-12.46-27.93-20.68-93.33-91.83-186.74-183.58-280.13-275.34-9.31-9.14-18.77-18.14-28.01-27.34-16.58-16.51-17.12-41-1.38-56.88,15.87-16.02,41.3-15.94,58.3.63,37.38,36.44,74.57,73.06,111.81,109.63,58.35,57.29,116.74,114.55,174.91,172.02,4.23,4.18,6.08,3.7,9.98-.16,72.39-71.54,144.96-142.92,217.45-214.37,21.37-21.06,43.22-41.71,63.79-63.51,22.85-24.21,63.18-15.51,70.93,16.8.21.87.39,1.65,1.39,1.92v14.24c-1.31,10.13-7.02,17.64-14.19,24.67-61.35,60.16-123.08,119.96-183.65,180.89-40.32,40.56-81.5,80.28-121.78,120.86-8.91,8.98-19.28,14.57-31.75,16.61h-19.74Z"/>
  <path class="cls-1" d="M473.91,0c6.06,5.03,6.08,10.76,3.45,17.83-35.51,95.6-70.8,191.27-106.1,286.95-1.98,5.37-4.33,9.98-11.15,9.97-6.96-.02-9.03-5.02-10.9-10.26-34.26-95.76-68.47-191.53-102.85-287.25-2.47-6.86-2.04-12.47,3.83-17.23h223.72Z"/>
  <path class="cls-1" d="M609.46,76.91c.16,3.42-2.52,5.41-4.29,7.74-50.6,66.36-101.27,132.66-151.92,198.99-13.81,18.09-27.59,36.2-41.39,54.3-1.18,1.55-2.36,3.11-3.63,4.59-2.22,2.59-4.93,3.69-8.11,1.77-3.35-2.02-4.01-5.1-2.3-8.39,2.89-5.56,6.05-10.98,9.11-16.45,49.64-88.61,99.27-177.22,148.92-265.82,4.24-7.57,6.36-8.15,14.02-3.7,11.5,6.67,22.95,13.44,34.42,20.15,2.69,1.57,5.31,3.17,5.17,6.82Z"/>
  <path class="cls-1" d="M325.87,339.13c-.19,2.28-1.12,4.08-3.25,5.26-2.17,1.21-4.33,1.07-6.17-.3-1.53-1.14-2.79-2.71-3.97-4.24-65.01-85.08-130-170.17-194.98-255.26-6.36-8.33-5.97-10.3,2.88-15.53,11.07-6.53,22.13-13.1,33.25-19.56,6.77-3.93,9.19-3.2,13.06,3.71,52.17,93.13,104.33,186.27,156.48,279.41,1.15,2.06,2.57,4.04,2.69,6.52Z"/>
</svg>