<?xml version="1.0" encoding="UTF-8"?>
<svg id="Layer_1" data-name="Layer 1" xmlns="http://www.w3.org/2000/svg" viewBox="0 0 435.11 720">
  <defs>
    <style>
      .cls-1 {
        fill: #f99f20;
      }
    </style>
  </defs>
  <g>
    <path class="cls-1" d="M380.36,28.46c-30.24,0-54.75,24.51-54.75,54.75v243.21H82.4c-30.24,0-54.75,24.51-54.75,54.75h0c0,30.24,24.51,54.75,54.75,54.75h297.96c30.24,0,54.75-24.51,54.75-54.75h0V83.21c0-30.24-24.51-54.75-54.75-54.75Z"/>
    <path class="cls-1" d="M277.79,277.79h0c21.38-21.38,21.38-56.05,0-77.43L93.46,16.04c-21.38-21.38-56.05-21.38-77.43,0h0c-21.38,21.38-21.38,56.05,0,77.43l184.32,184.32c21.38,21.38,56.05,21.38,77.43,0Z"/>
  </g>
  <g>
    <path class="cls-1" d="M35.7,497.39c0,17.7,14.35,32.04,32.04,32.04h142.34v142.34c0,17.7,14.35,32.04,32.04,32.04h0c17.7,0,32.04-14.35,32.04-32.04v-174.38c0-17.7-14.35-32.04-32.04-32.04H67.74c-17.7,0-32.04,14.35-32.04,32.04Z"/>
    <path class="cls-1" d="M181.62,557.43h0c-12.51-12.51-32.8-12.51-45.31,0l-107.88,107.88c-12.51,12.51-12.51,32.8,0,45.31h0c12.51,12.51,32.8,12.51,45.31,0l107.88-107.88c12.51-12.51,12.51-32.8,0-45.31Z"/>
  </g>
</svg>