<?xml version="1.0" encoding="UTF-8"?>
<svg id="Layer_1" data-name="Layer 1" xmlns="http://www.w3.org/2000/svg" viewBox="0 0 720 504">
  <defs>
    <style>
      .cls-1 {
        fill: #4caf50;
      }
    </style>
  </defs>
  <path class="cls-1" d="M677.65,293.56h0c-11.7,0-22.28-4.74-29.95-12.4-7.66-7.66-12.4-18.25-12.4-29.95h0c0-11.7,4.74-22.28,12.4-29.95,7.66-7.66,18.25-12.4,29.95-12.4h0c11.7,0,22.28,4.74,29.95,12.4s12.4,18.25,12.4,29.95h0c0,11.7-4.74,22.28-12.4,29.95-7.66,7.66-18.25,12.4-29.95,12.4Z"/>
  <path class="cls-1" d="M148.24,423.53h0c-11.7,0-22.28-4.74-29.95-12.4-7.66-7.66-12.4-18.25-12.4-29.95v-169.41s0-169.41,0-169.41c0-11.7,4.74-22.28,12.4-29.95S136.54,0,148.24,0h0c11.7,0,22.28,4.74,29.95,12.4,7.66,7.66,12.4,18.25,12.4,29.95v169.41s0,169.41,0,169.41c0,11.7-4.74,22.28-12.4,29.95-7.66,7.66-18.25,12.4-29.95,12.4Z"/>
  <path class="cls-1" d="M254.12,504h0c-11.7,0-22.28-4.74-29.95-12.4-7.66-7.66-12.4-18.25-12.4-29.95v-84.71s0-84.71,0-84.71c0-11.7,4.74-22.28,12.4-29.95,7.66-7.66,18.25-12.4,29.95-12.4h0s0,0,0,0c11.7,0,22.28,4.74,29.95,12.4,7.66,7.66,12.4,18.25,12.4,29.95v84.71s0,84.71,0,84.71c0,11.7-4.74,22.28-12.4,29.95-7.66,7.66-18.25,12.4-29.95,12.4Z"/>
  <path class="cls-1" d="M360,325.53h0c-11.7,0-22.28-4.74-29.95-12.4s-12.4-18.25-12.4-29.95v-42.35s0-42.35,0-42.35c0-11.7,4.74-22.28,12.4-29.95,7.66-7.66,18.25-12.4,29.95-12.4h0c11.7,0,22.28,4.74,29.95,12.4,7.66,7.66,12.4,18.25,12.4,29.95v42.35s0,42.35,0,42.35c0,11.7-4.74,22.28-12.4,29.95-7.66,7.66-18.25,12.4-29.95,12.4Z"/>
  <path class="cls-1" d="M465.88,504h0c-11.7,0-22.28-4.74-29.95-12.4-7.66-7.66-12.4-18.25-12.4-29.95v-84.71s0-84.71,0-84.71c0-11.7,4.74-22.28,12.4-29.95s18.25-12.4,29.95-12.4h0c11.7,0,22.28,4.74,29.95,12.4,7.66,7.66,12.4,18.25,12.4,29.95v84.71s0,84.71,0,84.71c0,11.7-4.74,22.28-12.4,29.95-7.66,7.66-18.25,12.4-29.95,12.4Z"/>
  <path class="cls-1" d="M571.76,423.53h0c-11.7,0-22.28-4.74-29.95-12.4s-12.4-18.25-12.4-29.95v-169.41s0-169.41,0-169.41c0-11.7,4.74-22.28,12.4-29.95C549.48,4.74,560.07,0,571.76,0h0c11.7,0,22.28,4.74,29.95,12.4,7.66,7.66,12.4,18.25,12.4,29.95v169.41s0,169.41,0,169.41c0,11.7-4.74,22.28-12.4,29.95s-18.25,12.4-29.95,12.4Z"/>
  <path class="cls-1" d="M42.35,293.56h0c-11.7,0-22.28-4.74-29.95-12.4C4.74,273.49,0,262.9,0,251.21H0c0-11.7,4.74-22.28,12.4-29.95s18.25-12.4,29.95-12.4h0c11.7,0,22.28,4.74,29.95,12.4,7.66,7.66,12.4,18.25,12.4,29.95h0c0,11.7-4.74,22.28-12.4,29.95s-18.25,12.4-29.95,12.4Z"/>
</svg>