<?xml version="1.0" encoding="UTF-8"?>
<svg id="Layer_1" data-name="Layer 1" xmlns="http://www.w3.org/2000/svg" viewBox="0 0 720 89.49">
  <defs>
    <style>
      .cls-1 {
        fill: #bdbdbd;
      }

      .cls-2 {
        fill: #f99f20;
      }
    </style>
  </defs>
  <g>
    <polygon class="cls-2" points="310.25 36.41 310.01 36.41 299.39 89.49 287.68 89.49 306.26 5.71 337.53 69.02 368.79 5.71 387.37 89.49 375.66 89.49 365.04 36.41 364.8 36.41 337.53 89.49 310.25 36.41"/>
    <polygon class="cls-2" points="399.92 9.12 448.81 9.12 448.81 18.29 411.27 18.29 411.27 40.78 447.72 40.78 447.72 49.94 411.27 49.94 411.27 80.32 448.81 80.32 448.81 89.49 399.92 89.49 399.92 9.12"/>
    <path class="cls-2" d="M464.25,9.12h18.83c27.88,0,51.06,13.01,51.06,39.76s-22.69,40.61-51.42,40.61h-18.47V9.12ZM475.6,80.32h3.98c23.17,0,43.21-7.67,43.21-31.02s-20.04-31.02-43.21-31.02h-3.98v62.03Z"/>
    <rect class="cls-2" x="547.53" y="9.12" width="11.34" height="80.37"/>
    <path class="cls-2" d="M591.22,69.35l-10.38,20.14h-12.19l43.45-83.78,43.45,83.78h-12.19l-10.38-20.14h-41.76ZM612.1,27.67l-16.17,32.51h32.35l-16.17-32.51Z"/>
    <path class="cls-2" d="M678.11,89.49c-2.14,0-4.27-.81-5.9-2.45-3.26-3.26-3.26-8.55,0-11.81l27.63-27.63-27.63-27.63c-3.26-3.26-3.26-8.55,0-11.81,3.26-3.26,8.55-3.26,11.81,0l33.54,33.54c3.26,3.26,3.26,8.55,0,11.81l-33.54,33.54c-1.63,1.63-3.77,2.45-5.91,2.45Z"/>
  </g>
  <g>
    <path class="cls-1" d="M84.73,5.87c2.18,0,3.95.72,5.33,2.16,1.37,1.44,2.06,3.18,2.06,5.23s-.73,3.75-2.18,5.11c-1.46,1.36-3.27,2.04-5.45,2.04s-4.02-.7-5.51-2.1c-1.49-1.4-2.24-3.12-2.24-5.17s.77-3.86,2.3-5.22c1.53-1.36,3.43-2.05,5.69-2.05ZM78.27,33c0-1.73.6-3.14,1.82-4.24,1.21-1.09,2.74-1.64,4.6-1.64s3.25.57,4.42,1.7c1.17,1.13,1.75,2.52,1.75,4.18v50.61c0,1.74-.61,3.15-1.82,4.24-1.21,1.09-2.74,1.64-4.6,1.64s-3.25-.56-4.42-1.69c-1.17-1.13-1.75-2.53-1.75-4.19v-50.61Z"/>
    <path class="cls-1" d="M107.32,6.03c0-1.58.61-3.02,1.82-4.3,1.21-1.06,2.75-1.59,4.61-1.59,1.7,0,3.17.59,4.42,1.76,1.25,1.17,1.88,2.55,1.88,4.13v77.23c0,1.66-.63,3.11-1.88,4.36-1.25,1.24-2.77,1.87-4.54,1.87s-3.17-.63-4.42-1.87c-1.25-1.25-1.88-2.67-1.88-4.25V6.03Z"/>
    <path class="cls-1" d="M136.87,6.03c0-1.58.6-3.02,1.82-4.3,1.21-1.06,2.75-1.59,4.61-1.59,1.7,0,3.17.59,4.42,1.76,1.25,1.17,1.88,2.55,1.88,4.13v77.23c0,1.66-.63,3.11-1.88,4.36-1.25,1.24-2.77,1.87-4.54,1.87s-3.17-.63-4.42-1.87c-1.25-1.25-1.88-2.67-1.88-4.25V6.03Z"/>
    <path class="cls-1" d="M171.21,5.87c2.18,0,3.95.72,5.33,2.16,1.37,1.44,2.06,3.18,2.06,5.23s-.73,3.75-2.18,5.11c-1.46,1.36-3.27,2.04-5.45,2.04s-4.02-.7-5.51-2.1c-1.49-1.4-2.24-3.12-2.24-5.17s.77-3.86,2.3-5.22c1.53-1.36,3.43-2.05,5.69-2.05ZM164.75,33c0-1.73.61-3.14,1.81-4.24,1.21-1.09,2.74-1.64,4.6-1.64s3.25.57,4.42,1.7c1.17,1.13,1.75,2.52,1.75,4.18v50.61c0,1.74-.6,3.15-1.82,4.24-1.21,1.09-2.74,1.64-4.6,1.64s-3.25-.56-4.42-1.69c-1.17-1.13-1.75-2.53-1.75-4.19v-50.61Z"/>
    <path class="cls-1" d="M193.8,32.85c0-1.66.63-3.08,1.89-4.25,1.26-1.17,2.78-1.76,4.57-1.76,1.54,0,2.9.43,4.08,1.29,1.18.86,1.77,1.97,1.77,3.32v2.93c3.89-5.02,9.86-7.54,17.89-7.54.73,0,3.38.3,7.97.9,4.58.6,8.38,3.36,11.38,8.26,2.68,4.3,4.02,8.78,4.02,13.46v34.04c0,1.66-.63,3.07-1.88,4.24-1.25,1.17-2.77,1.75-4.54,1.75s-3.27-.56-4.48-1.7c-1.21-1.13-1.82-2.52-1.82-4.18v-33.22c0-3.69-1.37-6.83-4.1-9.43-2.73-2.6-6.09-3.9-10.09-3.9s-7.23,1.29-9.96,3.85c-2.73,2.57-4.1,5.66-4.1,9.28v33.52c0,1.59-.61,2.95-1.82,4.08-1.21,1.13-2.66,1.7-4.36,1.7-1.85,0-3.39-.55-4.6-1.64-1.21-1.1-1.82-2.51-1.82-4.25v-50.75Z"/>
    <path class="cls-1" d="M267.3,5.87c2.18,0,3.95.72,5.33,2.16,1.37,1.44,2.06,3.18,2.06,5.23s-.73,3.75-2.18,5.11c-1.46,1.36-3.27,2.04-5.45,2.04s-4.02-.7-5.51-2.1c-1.49-1.4-2.24-3.12-2.24-5.17s.77-3.86,2.3-5.22c1.53-1.36,3.43-2.05,5.69-2.05ZM260.84,33c0-1.73.61-3.14,1.82-4.24,1.21-1.09,2.74-1.64,4.6-1.64s3.25.57,4.42,1.7c1.17,1.13,1.75,2.52,1.75,4.18v50.61c0,1.74-.6,3.15-1.82,4.24-1.21,1.09-2.74,1.64-4.6,1.64s-3.25-.56-4.42-1.69c-1.17-1.13-1.75-2.53-1.75-4.19v-50.61Z"/>
    <g>
      <g>
        <path class="cls-1" d="M47.2,3.53c-3.75,0-6.79,3.04-6.79,6.79v30.18H10.23c-3.75,0-6.79,3.04-6.79,6.79h0c0,3.75,3.04,6.79,6.79,6.79h36.98c3.75,0,6.79-3.04,6.79-6.79h0V10.33c0-3.75-3.04-6.79-6.79-6.79Z"/>
        <path class="cls-1" d="M34.47,34.47h0c2.65-2.65,2.65-6.96,0-9.61L11.6,1.99C8.95-.66,4.64-.66,1.99,1.99h0C-.66,4.64-.66,8.95,1.99,11.6l22.87,22.87c2.65,2.65,6.96,2.65,9.61,0Z"/>
      </g>
      <g>
        <path class="cls-1" d="M4.43,61.73c0,2.2,1.78,3.98,3.98,3.98h17.66v17.66c0,2.2,1.78,3.98,3.98,3.98h0c2.2,0,3.98-1.78,3.98-3.98v-21.64c0-2.2-1.78-3.98-3.98-3.98H8.41c-2.2,0-3.98,1.78-3.98,3.98Z"/>
        <path class="cls-1" d="M22.54,69.17h0c-1.55-1.55-4.07-1.55-5.62,0l-13.39,13.39c-1.55,1.55-1.55,4.07,0,5.62h0c1.55,1.55,4.07,1.55,5.62,0l13.39-13.39c1.55-1.55,1.55-4.07,0-5.62Z"/>
      </g>
    </g>
  </g>
</svg>